<svg xmlns="http://www.w3.org/2000/svg" viewBox="0 0 479.87 480"><defs><style>.cls-1{fill:#007246;}</style></defs><g id="레이어_2" data-name="레이어 2"><g id="레이어_1-2" data-name="레이어 1"><g id="outline"><path class="cls-1" d="M416,0a24,24,0,1,0,24,24A24,24,0,0,0,416,0Zm0,32a8,8,0,1,1,8-8A8,8,0,0,1,416,32Z"/><path class="cls-1" d="M448,80a8,8,0,0,0,5.66-2.34l16-16a8,8,0,1,0-11.32-11.32h0l-16,16A8,8,0,0,0,448,80Z"/><path class="cls-1" d="M82.34,98.34a8,8,0,0,0,0,11.32h0l16,16a8,8,0,0,0,11.32-11.32l-16-16a8,8,0,0,0-11.32,0Z"/><path class="cls-1" d="M432,208H390.62a24,24,0,1,0-45.24,0H216L275,159a15.55,15.55,0,0,0,5.48,1,15.93,15.93,0,0,0,9.4-3.11L320,135l30.16,21.91A16,16,0,0,0,374.76,139l-11.52-35.45L393.4,81.68A16,16,0,0,0,384,52.76H346.72L335.2,17.31h0a16,16,0,0,0-30.41,0L293.28,52.76H256a15.71,15.71,0,0,0-14.58,9.43,8.48,8.48,0,0,0-1,.69L208.39,89.52a24,24,0,0,0-32,26.62L2.89,260.32a8,8,0,0,0-1,11.27h0L53,333.11A8.06,8.06,0,0,0,58.4,336c.25,0,.49,0,.74,0a8,8,0,0,0,5.11-1.85L136,274.52V472a8,8,0,0,0,8,8H432a8,8,0,0,0,8-8V216A8,8,0,0,0,432,208Zm-8,96H328V224h96Zm0,64H328V320h96ZM360,200a8,8,0,1,1,8,8A8,8,0,0,1,360,200ZM152,320h96v48H152ZM299.09,68.76a8,8,0,0,0,7.61-5.53L320,22.29l13.3,40.94a8,8,0,0,0,7.61,5.53h43l-34.82,25.3a8,8,0,0,0-2.91,8.94l13.3,40.94-34.82-25.3a8,8,0,0,0-9.4,0l-34.83,25.3L293.77,103a8,8,0,0,0-2.9-8.94L256,68.76ZM200,104a8,8,0,1,1-6.62,12.48,7.73,7.73,0,0,0-1-2.19,8,8,0,0,1,5.35-10A7.88,7.88,0,0,1,200,104ZM60.17,316.73l-40.9-49.21L184.43,130.24A24,24,0,0,0,220.78,100l24-19.91a18.48,18.48,0,0,0,1.85,1.57l30.16,21.91L265.24,139a16.12,16.12,0,0,0-.58,7.74ZM196.78,224H248v80H152V261.22ZM152,384h96v80H152Zm112,80V224h48V464Zm64,0V384h96v80Z"/><path class="cls-1" d="M445.67,99.14a8,8,0,0,0-11.29-.58h0L410.63,120a8,8,0,0,0-.57,11.3h0l32.13,35.55a8,8,0,0,0,11.3.57h0L477.23,146a8,8,0,0,0,.57-11.3h0Zm3,51.07-21.4-23.68,11.87-10.73,21.4,23.68Z"/><path class="cls-1" d="M167,9.73,130.17,40.35a8,8,0,0,0-1,11.27h0l20.45,24.61a8,8,0,0,0,11.27,1h0L197.7,46.64a8,8,0,0,0,1-11.26h0L178.28,10.77a8,8,0,0,0-11.26-1ZM156.78,59.85l-10.23-12.3,24.54-20.4,10.23,12.3Z"/><path class="cls-1" d="M274.34,170.34a8,8,0,0,0,0,11.32h0l8,8a8,8,0,1,0,11.32-11.32l-8-8a8,8,0,0,0-11.32,0Z"/><path class="cls-1" d="M258.34,29.66a8,8,0,0,0,11.32-11.32l-8-8a8,8,0,1,0-11.32,11.32Z"/></g></g></g></svg>