<svg xmlns="http://www.w3.org/2000/svg" xmlns:xlink="http://www.w3.org/1999/xlink" width="48" height="48" viewBox="0 0 48 48">
  <defs>
    <clipPath id="clip-path">
      <rect id="사각형_654" data-name="사각형 654" width="48" height="48" rx="10" transform="translate(69 166)" fill="#007246"/>
    </clipPath>
  </defs>
  <g id="마스크_그룹_3" data-name="마스크 그룹 3" transform="translate(-69 -166)" clip-path="url(#clip-path)">
    <g id="id-card" transform="translate(69 172.4)">
      <path id="패스_35" data-name="패스 35" d="M44.626,8.533H3.374A3.378,3.378,0,0,0,0,11.907V40.36a3.378,3.378,0,0,0,3.374,3.374H44.626A3.378,3.378,0,0,0,48,40.36V11.907A3.378,3.378,0,0,0,44.626,8.533ZM46.4,40.36a1.775,1.775,0,0,1-1.774,1.774H3.374A1.775,1.775,0,0,1,1.6,40.36V11.907a1.775,1.775,0,0,1,1.774-1.774H44.626A1.775,1.775,0,0,1,46.4,11.907Z" transform="translate(0 -8.533)" fill="#007246"/>
      <path id="패스_36" data-name="패스 36" d="M19.444,33.259l-2.91-1.486v-.31a5.779,5.779,0,0,0,2.73-3.491,2.381,2.381,0,0,0,1.27-2.11v-.8a2.385,2.385,0,0,0-.921-1.879c-.5-3.024-2.61-4.557-6.279-4.557q-.26,0-.509.019a4.049,4.049,0,0,1-2.579-.592,3.279,3.279,0,0,1-.732-.634.958.958,0,0,0-1.709.7c.034.3.084.647.16,1.029.154.78.154.78-.062,1.246-.082.177-.182.392-.3.682a8.934,8.934,0,0,0-.561,2.118,2.388,2.388,0,0,0-.907,1.869v.8a2.381,2.381,0,0,0,1.27,2.11,5.775,5.775,0,0,0,2.73,3.491v.3L7.118,33.25a3.422,3.422,0,0,0-1.785,3.006v1.06c0,.642,0,2.146,8,2.146s8-1.5,8-2.146v-1A3.406,3.406,0,0,0,19.444,33.259Zm.29,3.877c-.5.3-2.53.726-6.4.726s-5.9-.422-6.4-.726v-.879a1.809,1.809,0,0,1,.922-1.586l3.086-1.521a1.421,1.421,0,0,0,.792-1.27V30.437l-.483-.208a4.241,4.241,0,0,1-2.412-3.051l-.114-.426L8.3,26.62a.807.807,0,0,1-.569-.758v-.8a.8.8,0,0,1,.433-.7l.375-.2.044-.423a7.512,7.512,0,0,1,.5-2.056c.106-.26.2-.454.27-.614a2.363,2.363,0,0,0,.3-1.5,5.709,5.709,0,0,0,3.3.673c.124-.01.251-.015.382-.015,3,0,4.458,1.085,4.743,3.518l.05.418.372.2a.8.8,0,0,1,.434.7v.8a.805.805,0,0,1-.57.758l-.421.131-.114.426a4.241,4.241,0,0,1-2.412,3.051l-.483.209v1.449a1.408,1.408,0,0,0,.771,1.26l3.02,1.543a1.813,1.813,0,0,1,1.009,1.631Z" transform="translate(-1.333 -10.662)" fill="#007246"/>
      <path id="패스_37" data-name="패스 37" d="M31.733,24h8a.8.8,0,1,0,0-1.6h-8a.8.8,0,0,0,0,1.6Z" transform="translate(-7.733 -12)" fill="#007246"/>
      <path id="패스_38" data-name="패스 38" d="M46.667,24h.8a.8.8,0,0,0,0-1.6h-.8a.8.8,0,0,0,0,1.6Z" transform="translate(-11.467 -12)" fill="#007246"/>
      <path id="패스_39" data-name="패스 39" d="M32.533,40.533h-.8a.8.8,0,1,0,0,1.6h.8a.8.8,0,0,0,0-1.6Z" transform="translate(-7.733 -16.533)" fill="#007246"/>
      <path id="패스_40" data-name="패스 40" d="M38.667,40.533h-1.6a.8.8,0,0,0,0,1.6h1.6a.8.8,0,1,0,0-1.6Z" transform="translate(-9.067 -16.533)" fill="#007246"/>
      <path id="패스_41" data-name="패스 41" d="M44.267,40.533h-.8a.8.8,0,0,0,0,1.6h.8a.8.8,0,0,0,0-1.6Z" transform="translate(-10.667 -16.533)" fill="#007246"/>
      <path id="패스_42" data-name="패스 42" d="M50.4,40.533H48.8a.8.8,0,1,0,0,1.6h1.6a.8.8,0,0,0,0-1.6Z" transform="translate(-12 -16.533)" fill="#007246"/>
      <path id="패스_43" data-name="패스 43" d="M54.632,40.769a.8.8,0,1,0,1.136,0A.836.836,0,0,0,54.632,40.769Z" transform="translate(-13.6 -16.537)" fill="#007246"/>
      <path id="패스_44" data-name="패스 44" d="M49.333,28.8h-17.6a.8.8,0,0,0,0,1.6h17.6a.8.8,0,0,0,0-1.6Z" transform="translate(-7.733 -13.6)" fill="#007246"/>
      <path id="패스_45" data-name="패스 45" d="M49.333,35.2h-17.6a.8.8,0,0,0,0,1.6h17.6a.8.8,0,0,0,0-1.6Z" transform="translate(-7.733 -15.2)" fill="#007246"/>
    </g>
  </g>
</svg>
