<svg xmlns="http://www.w3.org/2000/svg" xmlns:xlink="http://www.w3.org/1999/xlink" width="56" height="56" viewBox="0 0 56 56">
  <defs>
    <clipPath id="clip-path">
      <rect id="사각형_655" data-name="사각형 655" width="56" height="56" rx="10" transform="translate(242 166)" fill="#007246"/>
    </clipPath>
  </defs>
  <g id="마스크_그룹_2" data-name="마스크 그룹 2" transform="translate(-242 -166)" clip-path="url(#clip-path)">
    <g id="password-code" transform="translate(242 184.225)">
      <g id="그룹_193" data-name="그룹 193" transform="translate(42.886 13.195)">
        <g id="그룹_192" data-name="그룹 192">
          <path id="패스_28" data-name="패스 28" d="M57.389,35.908H49.834a.821.821,0,1,0,0,1.642h7.555a.821.821,0,0,0,0-1.642Z" transform="translate(-49.013 -35.908)" fill="#007246"/>
        </g>
      </g>
      <g id="그룹_195" data-name="그룹 195" transform="translate(3.867 5.177)">
        <g id="그룹_194" data-name="그룹 194">
          <path id="패스_29" data-name="패스 29" d="M12.038,32.7l-2.1-1.354,2.1-1.354a.821.821,0,1,0-.889-1.381l-1.911,1.23V27.566a.821.821,0,0,0-1.642,0v2.272l-1.911-1.23A.821.821,0,0,0,4.8,29.989l2.1,1.354L4.8,32.7a.821.821,0,1,0,.889,1.381L7.6,32.848V35.12a.821.821,0,0,0,1.642,0V32.848l1.911,1.23a.821.821,0,1,0,.889-1.381Z" transform="translate(-4.42 -26.745)" fill="#007246"/>
        </g>
      </g>
      <g id="그룹_197" data-name="그룹 197" transform="translate(13.648 5.177)">
        <g id="그룹_196" data-name="그룹 196">
          <path id="패스_30" data-name="패스 30" d="M23.217,32.7l-2.1-1.354,2.1-1.354a.821.821,0,0,0-.889-1.381l-1.911,1.23V27.566a.821.821,0,1,0-1.642,0v2.272l-1.911-1.23a.821.821,0,0,0-.889,1.381l2.1,1.354-2.1,1.354a.821.821,0,1,0,.889,1.381l1.911-1.23V35.12a.821.821,0,0,0,1.642,0V32.848l1.911,1.23a.821.821,0,1,0,.889-1.381Z" transform="translate(-15.598 -26.745)" fill="#007246"/>
        </g>
      </g>
      <g id="그룹_199" data-name="그룹 199" transform="translate(23.43 5.177)">
        <g id="그룹_198" data-name="그룹 198">
          <path id="패스_31" data-name="패스 31" d="M34.4,32.7l-2.1-1.354,2.1-1.354a.821.821,0,1,0-.889-1.381L31.6,29.838V27.566a.821.821,0,1,0-1.642,0v2.272l-1.911-1.23a.821.821,0,1,0-.889,1.381l2.1,1.354-2.1,1.354a.821.821,0,1,0,.889,1.381l1.911-1.23V35.12a.821.821,0,0,0,1.642,0V32.848l1.911,1.23A.821.821,0,1,0,34.4,32.7Z" transform="translate(-26.777 -26.745)" fill="#007246"/>
        </g>
      </g>
      <g id="그룹_201" data-name="그룹 201" transform="translate(33.211 5.177)">
        <g id="그룹_200" data-name="그룹 200">
          <path id="패스_32" data-name="패스 32" d="M45.574,32.7l-2.1-1.354,2.1-1.354a.821.821,0,1,0-.889-1.381l-1.911,1.23V27.566a.821.821,0,1,0-1.642,0v2.272l-1.911-1.23a.821.821,0,0,0-.889,1.381l2.1,1.354-2.1,1.354a.821.821,0,1,0,.889,1.381l1.911-1.23V35.12a.821.821,0,0,0,1.642,0V32.848l1.911,1.23a.821.821,0,1,0,.889-1.381Z" transform="translate(-37.956 -26.745)" fill="#007246"/>
        </g>
      </g>
      <g id="그룹_203" data-name="그룹 203">
        <g id="그룹_202" data-name="그룹 202">
          <path id="패스_33" data-name="패스 33" d="M29.727,38.736H1.642V22.471H11.825a.821.821,0,0,0,0-1.642H1.369A1.37,1.37,0,0,0,0,22.2V39.01a1.37,1.37,0,0,0,1.369,1.369H29.727a.821.821,0,0,0,0-1.642Z" transform="translate(0 -20.828)" fill="#007246"/>
        </g>
      </g>
      <g id="그룹_205" data-name="그룹 205" transform="translate(16.917)">
        <g id="그룹_204" data-name="그룹 204">
          <path id="패스_34" data-name="패스 34" d="M57.048,20.828H20.154a.821.821,0,1,0,0,1.642h36.62V38.736H37.837a.821.821,0,1,0,0,1.642H57.048a1.37,1.37,0,0,0,1.369-1.369V22.2A1.37,1.37,0,0,0,57.048,20.828Z" transform="translate(-19.333 -20.828)" fill="#007246"/>
        </g>
      </g>
    </g>
  </g>
</svg>
