<?xml version="1.0" encoding="utf-8"?>
<!-- Generator: Adobe Illustrator 24.3.0, SVG Export Plug-In . SVG Version: 6.00 Build 0)  -->
<svg version="1.1" id="Capa_1" xmlns="http://www.w3.org/2000/svg" xmlns:xlink="http://www.w3.org/1999/xlink" x="0px" y="0px"
	 viewBox="0 0 21.8 24" style="enable-background:new 0 0 21.8 24;" xml:space="preserve">
<style type="text/css">
	.st0{fill:#222222;}
</style>
<path class="st0" d="M20.7,17.8h-1.4V8.7c0-4.7-3.8-8.5-8.5-8.5C6.1,0.1,2.2,4,2.2,8.7v9H0.9c-0.5,0-0.9,0.4-0.9,0.9
	s0.4,0.9,0.9,0.9h5.8v0.3c0,2.3,1.9,4.2,4.2,4.2c2.3,0,4.2-1.9,4.2-4.2v-0.3h5.8c0.5,0,0.8-0.4,0.9-0.8
	C21.6,18.1,21.2,17.8,20.7,17.8z M13.3,19.7c0,1.3-1.1,2.5-2.5,2.5c-1.3,0-2.5-1.1-2.5-2.5v-0.3h5V19.7z M17.6,17.6v0.3h-0.2H4V8.7
	C4,4.9,7,1.8,10.8,1.8s6.8,3.1,6.8,6.8V17.6z"/>
</svg>
