<svg xmlns="http://www.w3.org/2000/svg" width="30" height="30" viewBox="0 0 30 30">
  <g id="그룹_228" data-name="그룹 228" transform="translate(14542 -1733)">
    <g id="그룹_219" data-name="그룹 219" transform="translate(4 31.406)">
      <g id="그룹_218" data-name="그룹 218" transform="translate(-14544 1707.594)">
        <g id="_47.-Delivery-car" data-name="47.-Delivery-car" transform="translate(0 0)">
          <g id="그룹_227" data-name="그룹 227" transform="translate(0 0)">
            <g id="그룹_226" data-name="그룹 226">
              <g id="그룹_225" data-name="그룹 225">
                <g id="그룹_224" data-name="그룹 224">
                  <g id="그룹_223" data-name="그룹 223">
                    <g id="그룹_222" data-name="그룹 222">
                      <g id="그룹_221" data-name="그룹 221">
                        <g id="그룹_220" data-name="그룹 220">
                          <path id="Layer-1" d="M17.683,11c.812,0,1.47.459,1.47,1.022v9.2H2V11.976C2,11.437,2.629,11,3.406,11H17.683Z" transform="translate(-2 -11)" fill="none" stroke="#fff" stroke-linecap="round" stroke-linejoin="round" stroke-width="1.5" fill-rule="evenodd"/>
                          <path id="Layer-2" d="M70.442,49.434h1.714a.734.734,0,0,0,.737-.733v-4.66a2.412,2.412,0,0,0-.462-1.3L68.4,37.753a1.744,1.744,0,0,0-1.2-.571H63.091V49.434h2.45a2.45,2.45,0,1,1,4.9,0Z" transform="translate(-45.938 -34.311)" fill="none" stroke="#fff" stroke-linecap="round" stroke-linejoin="round" stroke-width="1.5" fill-rule="evenodd"/>
                          <path id="Layer-3" d="M71.818,46.752a.841.841,0,0,1,.841-.843h3.467l3.044,3.643v.758H72.661a.842.842,0,0,1-.843-.843Z" transform="translate(-52.214 -40.588)" fill="none" stroke="#fff" stroke-linecap="round" stroke-linejoin="round" stroke-width="1.5" fill-rule="evenodd"/>
                          <path id="Layer-4" d="M4.7,68.265H3.47A1.469,1.469,0,0,1,2,66.794v-3.43H19.153v4.9H9.6a2.45,2.45,0,1,0-4.9,0Z" transform="translate(-2 -53.141)" fill="none" stroke="#fff" stroke-linecap="round" stroke-linejoin="round" stroke-width="1.5" fill-rule="evenodd"/>
                          <circle id="Layer-5" cx="2.45" cy="2.45" r="2.45" transform="translate(2.695 12.673)" fill="none" stroke="#fff" stroke-linecap="round" stroke-linejoin="round" stroke-width="1.5"/>
                          <circle id="Layer-6" cx="2.45" cy="2.45" r="2.45" transform="translate(19.604 12.673)" fill="none" stroke="#fff" stroke-linecap="round" stroke-linejoin="round" stroke-width="1.5"/>
                        </g>
                      </g>
                    </g>
                  </g>
                </g>
              </g>
            </g>
          </g>
        </g>
      </g>
    </g>
    <rect id="사각형_687" data-name="사각형 687" width="30" height="30" transform="translate(-14542 1733)" fill="none"/>
  </g>
</svg>
