<svg xmlns="http://www.w3.org/2000/svg" viewBox="0 0 23.36 48.85"><defs><style>.cls-1{fill:#007246;}.cls-2{fill:#fff;}</style></defs><g id="레이어_2" data-name="레이어 2"><g id="레이어_2-2" data-name="레이어 2"><path class="cls-1" d="M11.68,0A11.69,11.69,0,0,0,0,11.68,11.33,11.33,0,0,0,.24,14a11.77,11.77,0,0,0,1.24,3.34l0,0,.29.54,1.08,2L3.47,21l8.21,15.52L19.89,21l.59-1.11,1.08-2,.29-.54,0,0A11.48,11.48,0,0,0,23.12,14a11.33,11.33,0,0,0,.24-2.34A11.69,11.69,0,0,0,11.68,0Zm0,16.74A5.06,5.06,0,0,1,7.19,14a5.12,5.12,0,0,1-.57-2.34,5.06,5.06,0,1,1,10.12,0A5.12,5.12,0,0,1,16.17,14,5.06,5.06,0,0,1,11.68,16.74Z"/><path class="cls-1" d="M11.68,48.35a4.16,4.16,0,1,1,4.15-4.16A4.16,4.16,0,0,1,11.68,48.35Z"/><path class="cls-2" d="M11.68,40.54A3.66,3.66,0,1,1,8,44.19a3.65,3.65,0,0,1,3.65-3.65m0-1a4.66,4.66,0,1,0,4.65,4.65,4.66,4.66,0,0,0-4.65-4.65Z"/></g></g></svg>