<?xml version="1.0" encoding="utf-8"?>
<!-- Generator: Adobe Illustrator 24.3.0, SVG Export Plug-In . SVG Version: 6.00 Build 0)  -->
<svg version="1.1" id="_x31_" xmlns="http://www.w3.org/2000/svg" xmlns:xlink="http://www.w3.org/1999/xlink" x="0px" y="0px"
	 viewBox="0 0 100 100" style="enable-background:new 0 0 100 100;" xml:space="preserve">
<style type="text/css">
	.st0{fill:#007246;}
</style>
<g>
	<path class="st0" d="M88.5,74.7l-7.8-14.3c0,0-0.1-0.1-0.1-0.1c0-0.1,0-0.2,0-0.3V24.1c0-1.2-0.9-2.1-2.1-2.1h-57
		c-1.2,0-2.1,0.9-2.1,2.1V60c0,0.1,0,0.2,0,0.3c0,0-0.1,0.1-0.1,0.1l-7.8,14.3c-0.4,0.7-0.4,1.5,0,2.1c0.4,0.7,1.1,1.1,1.9,1.1h73.2
		c0.8,0,1.5-0.4,1.9-1.1C88.8,76.2,88.9,75.4,88.5,74.7z M21.3,24.1c0-0.1,0.1-0.1,0.1-0.1h57c0.1,0,0.1,0.1,0.1,0.1v35.5H21.3V24.1
		z M86.8,75.9c0,0.1-0.1,0.1-0.2,0.1H13.4c-0.1,0-0.1,0-0.2-0.1c0-0.1,0-0.1,0-0.2l7.7-14.1h0h58.1h0l7.7,14.1
		C86.8,75.8,86.8,75.8,86.8,75.9z"/>
	<path class="st0" d="M44.7,39.5c0.9,0.9,2.3-0.5,1.4-1.4c-1-1-2-2-3-3c1-1,2-2,3-3c0.9-0.9-0.5-2.3-1.4-1.4c-1,1-2,2-3,3
		c-1-1-2-2-3-3c-0.9-0.9-2.3,0.5-1.4,1.4c1,1,2,2,3,3c-1,1-2,2-3,3c-0.9,0.9,0.5,2.3,1.4,1.4c1-1,2-2,3-3
		C42.8,37.5,43.7,38.5,44.7,39.5z"/>
	<path class="st0" d="M59.6,35.2c1-1,2-2,3-3c0.9-0.9-0.5-2.3-1.4-1.4c-1,1-2,2-3,3c-1-1-2-2-3-3c-0.9-0.9-2.3,0.5-1.4,1.4
		c1,1,2,2,3,3c-1,1-2,2-3,3c-0.9,0.9,0.5,2.3,1.4,1.4c1-1,2-2,3-3c1,1,2,2,3,3c0.9,0.9,2.3-0.5,1.4-1.4
		C61.6,37.1,60.6,36.1,59.6,35.2z"/>
	<path class="st0" d="M40,48.1c-0.9,0.9,0.5,2.3,1.4,1.4c4.8-4.6,12.3-4.6,17.1,0c0.9,0.9,2.3-0.5,1.4-1.4
		C54.4,42.7,45.6,42.7,40,48.1z"/>
</g>
</svg>
